<svg width="72" height="72" viewBox="0 0 72 72" fill="none" xmlns="http://www.w3.org/2000/svg">
<rect width="72" height="72" rx="14" fill="#333333"/>
<path d="M33.7508 18.4588L17.0954 25.1596C16.1692 25.5323 16.1788 26.8116 17.1108 27.1708L33.8357 33.6195C35.3051 34.1861 36.9416 34.1861 38.4111 33.6195L55.1362 27.1706C56.068 26.8116 56.078 25.5325 55.1513 25.1598L38.4964 18.4585C36.977 17.8472 35.27 17.8472 33.7506 18.4585" fill="#FCB400"/>
<path d="M37.6074 37.1407V53.2506C37.6074 54.0166 38.4021 54.5415 39.1346 54.2591L57.7712 47.2257C57.9791 47.1456 58.1574 47.0066 58.283 46.8267C58.4086 46.6469 58.4757 46.4345 58.4757 46.2171V30.1075C58.4757 29.3412 57.6811 28.8166 56.9485 29.0989L38.3119 36.1324C38.1041 36.2125 37.9258 36.3516 37.8002 36.5314C37.6746 36.7112 37.6074 36.9236 37.6074 37.141" fill="#18BFFF"/>
<path d="M33.2535 37.9722L27.7225 40.5688L27.161 40.8327L15.4855 46.2721C14.7457 46.6192 13.8008 46.0948 13.8008 45.2954V30.1752C13.8008 29.886 13.9533 29.6363 14.1578 29.4485C14.2417 29.3672 14.3369 29.2978 14.4406 29.2423C14.7194 29.0795 15.1174 29.036 15.4557 29.1661L33.1606 35.987C34.0605 36.3342 34.1312 37.5603 33.2535 37.9725" fill="#F82B60"/>
<path d="M33.2539 37.9722L27.7229 40.5688L14.1582 29.4482C14.2421 29.3671 14.3373 29.2978 14.441 29.2423C14.7198 29.0795 15.1177 29.036 15.4561 29.1661L33.1609 35.987C34.0609 36.3342 34.1316 37.5603 33.2539 37.9725" fill="black" fill-opacity="0.25"/>
</svg>
