<svg width="72" height="72" viewBox="0 0 72 72" fill="none" xmlns="http://www.w3.org/2000/svg">
<g clip-path="url(#clip0_6_18500)">
<path d="M8.94922 0H62.9492C67.9242 0 71.9492 4.025 71.9492 9V63C71.9492 67.975 67.9242 72 62.9492 72H8.94922C3.97422 72 -0.0507812 67.975 -0.0507812 63V9C-0.0507812 4.025 3.97422 0 8.94922 0Z" fill="#356AE6"/>
<path d="M36.6488 37.6754C37.2988 37.6754 37.9488 37.4254 38.6488 36.9004C39.4738 36.3254 40.1988 35.8504 40.1988 35.8504L40.4488 35.6754L40.1988 35.5004C40.0988 35.4254 29.2238 27.8754 28.0988 27.1504C27.5738 26.7754 26.9738 26.7004 26.4988 26.9254C26.0488 27.1504 25.7988 27.6254 25.7988 28.2004V30.7754L25.8988 30.8254C25.9738 30.8754 33.4488 36.0754 34.8988 37.0504C35.4988 37.4754 36.0738 37.6754 36.6488 37.6754Z" fill="white"/>
<path d="M51.2238 33.1496C50.5738 32.6746 27.2488 16.3996 26.2488 15.6996L25.9238 15.4746V19.4746C25.9238 20.7496 26.5988 21.2246 27.4238 21.8246C27.4238 21.8246 45.3238 34.2996 47.5488 35.8246C45.3238 37.3746 28.4738 49.0496 27.3988 49.7246C26.1238 50.5746 25.9988 51.1246 25.9988 52.2746V56.5746C25.9988 56.5746 50.6738 38.9246 51.1988 38.5246C52.3238 37.6746 52.5738 36.6746 52.5988 35.9496V35.4996C52.6238 34.5996 52.1488 33.7996 51.2238 33.1496Z" fill="white"/>
</g>
<defs>
<clipPath id="clip0_6_18500">
<rect width="72" height="72" fill="white"/>
</clipPath>
</defs>
</svg>
