<svg width="72" height="72" viewBox="0 0 72 72" fill="none" xmlns="http://www.w3.org/2000/svg">
<rect width="72" height="72" rx="8" fill="#FF5A5F"/>
<path d="M54.0746 44.5966C53.8742 44.1065 53.6739 43.5756 53.4735 43.1263C53.1528 42.3912 52.8322 41.6969 52.5517 41.0435L52.5116 41.0026C49.7463 34.8765 46.7805 28.6687 43.6545 22.5426L43.5342 22.2975C43.2136 21.6849 42.893 21.0314 42.5724 20.378C42.1716 19.6429 41.7708 18.8669 41.1296 18.1317C39.8471 16.4981 38.0036 15.5996 36.0398 15.5996C34.0359 15.5996 32.2324 16.4981 30.9098 18.0501C30.3087 18.7852 29.8678 19.5612 29.4671 20.2963C29.1464 20.9498 28.8258 21.6032 28.5052 22.2158L28.385 22.4609C25.299 28.587 22.2932 34.7948 19.5278 40.9209L19.4878 41.0026C19.2072 41.6561 18.8866 42.3504 18.566 43.0855C18.3656 43.5347 18.1652 44.0248 17.9648 44.5558C17.4438 46.0669 17.2835 47.4963 17.4839 48.9666C17.9247 52.0296 19.9286 54.6026 22.694 55.7462C23.736 56.1954 24.8181 56.3996 25.9402 56.3996C26.2609 56.3996 26.6616 56.3588 26.9822 56.3179C28.3048 56.1546 29.6674 55.7053 30.99 54.9293C32.6332 53.99 34.1962 52.6423 35.9596 50.6819C37.723 52.6423 39.3261 53.99 40.9292 54.9293C42.2518 55.7053 43.6144 56.1546 44.937 56.3179C45.2576 56.3588 45.6584 56.3996 45.979 56.3996C47.1011 56.3996 48.2233 56.1954 49.2253 55.7462C52.0307 54.6026 53.9945 51.9888 54.4353 48.9666C54.7559 47.5371 54.5956 46.1077 54.0746 44.5966ZM35.9997 46.7203C33.8355 43.9432 32.4328 41.3293 31.9519 39.1239C31.7515 38.1846 31.7114 37.3678 31.8316 36.6326C31.9118 35.9792 32.1522 35.4074 32.4729 34.9173C33.2343 33.8146 34.5168 33.1203 35.9997 33.1203C37.4825 33.1203 38.8051 33.7738 39.5265 34.9173C39.8471 35.4074 40.0876 35.9792 40.1677 36.6326C40.288 37.3678 40.2479 38.2254 40.0475 39.1239C39.5666 41.2885 38.1639 43.9023 35.9997 46.7203ZM51.9906 48.6399C51.7101 50.7636 50.3073 52.6014 48.3435 53.4182C47.3817 53.8266 46.3397 53.9492 45.2977 53.8266C44.2957 53.7041 43.2938 53.3774 42.2518 52.7648C40.809 51.948 39.3662 50.6819 37.6829 48.8032C40.3281 45.4951 41.9312 42.4729 42.5323 39.7774C42.8129 38.5113 42.8529 37.3678 42.7327 36.3059C42.5724 35.2849 42.2117 34.3456 41.6506 33.5287C40.4082 31.6909 38.3242 30.629 35.9997 30.629C33.6752 30.629 31.5912 31.7317 30.3488 33.5287C29.7877 34.3456 29.427 35.2849 29.2667 36.3059C29.1064 37.3678 29.1464 38.5522 29.4671 39.7774C30.0682 42.4729 31.7114 45.5359 34.3164 48.8441C32.6733 50.7227 31.1904 51.9888 29.7476 52.8056C28.7056 53.4182 27.7036 53.745 26.7017 53.8675C25.6196 53.99 24.5776 53.8266 23.6558 53.4591C21.692 52.6423 20.2893 50.8044 20.0088 48.6807C19.8885 47.6597 19.9687 46.6386 20.3695 45.4951C20.4897 45.0867 20.6901 44.6783 20.8905 44.1882C21.171 43.5347 21.4916 42.8405 21.8123 42.1462L21.8523 42.0645C24.6177 35.9792 27.5834 29.7714 30.6694 23.7269L30.7896 23.4819C31.1102 22.8693 31.4308 22.2158 31.7515 21.6032C32.0721 20.9498 32.4328 20.3371 32.8736 19.8062C33.7153 18.826 34.8374 18.2951 36.0798 18.2951C37.3222 18.2951 38.4444 18.826 39.286 19.8062C39.7269 20.3371 40.0876 20.9498 40.4082 21.6032C40.7288 22.2158 41.0494 22.8693 41.3701 23.4819L41.4903 23.7269C44.5362 29.8122 47.5019 36.02 50.2673 42.1053V42.1462C50.5879 42.7996 50.8684 43.5347 51.189 44.1882C51.3894 44.6783 51.5898 45.0867 51.7101 45.4951C52.0307 46.557 52.1509 47.578 51.9906 48.6399Z" fill="white"/>
</svg>
