<svg width="72" height="72" viewBox="0 0 72 72" fill="none" xmlns="http://www.w3.org/2000/svg">
<rect width="72" height="72" rx="8" fill="black"/>
<path d="M54.2669 26.0227L41.9973 19.2896C38.4003 17.3209 33.8841 19.8015 33.8841 23.739V24.4477C33.8841 25.0777 34.2438 25.6684 34.8034 25.944L37.1214 27.204C37.8008 27.5977 38.6401 27.1252 38.6401 26.3771V24.6446C38.6401 23.7784 39.5993 23.2665 40.3986 23.6602L51.0296 29.4877C51.829 29.9209 51.829 30.984 51.0296 31.4171L40.4386 37.284C39.6393 37.7171 38.6801 37.1659 38.6801 36.2996V35.394C38.6801 31.4171 34.1639 28.9759 30.5669 30.9446L18.2973 37.6777C14.7004 39.6465 14.7004 44.6077 18.2973 46.5765L30.5669 53.3096C34.1639 55.2783 38.6801 52.7977 38.6801 48.8602V48.1515C38.6801 47.5215 38.3204 46.9702 37.7609 46.6552L35.4428 45.3952C34.7634 45.0015 33.9241 45.474 33.9241 46.2221V47.9546C33.9241 48.8208 32.9649 49.3327 32.1656 48.939L21.5346 43.1115C20.7353 42.6784 20.7353 41.6152 21.5346 41.1821L32.1656 35.3546C32.9649 34.9215 33.9241 35.4727 33.9241 36.339V37.2446C33.9241 41.2215 38.4403 43.6627 42.0372 41.694L54.3069 34.9609C57.9038 32.9527 57.9038 27.9915 54.2669 26.0227Z" fill="white"/>
</svg>
